<?xml version="1.0" encoding="utf-8"?>
<svg viewBox="0 0 128 128" xmlns="http://www.w3.org/2000/svg">
  <defs/>
  <path fill="#5fa04e" d="M 63.26 4.862 C 62.316 4.862 61.368 5.215 60.54 5.683 L 10.198 34.85 C 8.273 35.949 7.092 38.001 7.108 40.216 L 7.231 118.585 C 7.231 119.664 7.814 120.743 8.766 121.223 C 9.668 121.822 10.838 121.822 11.74 121.223 L 41.671 104.02 C 43.566 102.945 44.74 100.939 44.748 98.76 L 44.748 62.085 C 44.748 59.935 45.938 57.896 47.841 56.821 L 60.54 49.415 C 61.467 48.849 62.538 48.562 63.625 48.582 C 64.692 48.582 65.767 48.816 66.6 49.415 L 79.302 56.821 C 81.202 57.896 82.396 59.935 82.396 62.085 L 82.396 98.764 C 82.396 100.906 83.577 102.949 85.473 104.016 L 115.161 121.223 C 116.105 121.818 117.303 121.818 118.246 121.223 C 119.211 120.698 119.805 119.685 119.793 118.585 L 119.793 40.216 C 119.793 38.066 118.603 36.031 116.7 34.952 L 66.476 5.683 C 65.631 5.231 64.704 4.948 63.752 4.858 L 63.256 4.858 L 63.26 4.862 Z" style=""/>
</svg>